<svg width="20" height="20" viewBox="0 0 20 20" fill="none" xmlns="http://www.w3.org/2000/svg">
<path fill-rule="evenodd" clip-rule="evenodd" d="M3.32813 4.79057C3.32812 4.49141 3.57064 4.2489 3.86979 4.2489L16.1302 4.2489C16.4294 4.2489 16.6719 4.49141 16.6719 4.79057C16.6719 5.08972 16.4294 5.33223 16.1302 5.33223L3.86979 5.33224C3.57064 5.33224 3.32813 5.08972 3.32813 4.79057Z" fill="#505050"/>
<path fill-rule="evenodd" clip-rule="evenodd" d="M3.32813 15.3041C3.32812 15.0049 3.57064 14.7624 3.86979 14.7624L16.1302 14.7624C16.4294 14.7624 16.6719 15.0049 16.6719 15.3041C16.6719 15.6032 16.4294 15.8457 16.1302 15.8457L3.86979 15.8457C3.57064 15.8457 3.32813 15.6032 3.32813 15.3041Z" fill="#505050"/>
<path fill-rule="evenodd" clip-rule="evenodd" d="M3.32816 10C3.32816 9.70087 3.57067 9.45835 3.86983 9.45835L16.1303 9.45835C16.4294 9.45835 16.6719 9.70087 16.6719 10C16.6719 10.2992 16.4294 10.5417 16.1303 10.5417L3.86983 10.5417C3.57067 10.5417 3.32816 10.2992 3.32816 10Z" fill="#505050"/>
</svg>
