<svg width="24" height="24" viewBox="0 0 24 24" fill="none" xmlns="http://www.w3.org/2000/svg">
<path fill-rule="evenodd" clip-rule="evenodd" d="M4 8C4 6.34315 5.34315 5 7 5H17C18.6569 5 20 6.34315 20 8V14C20 15.6569 18.6569 17 17 17H9.52219L6.1121 19.7281C5.26091 20.409 4 19.803 4 18.7129V8ZM5.3 18.7129L9.06617 15.7H17C17.9389 15.7 18.7 14.9389 18.7 14V8C18.7 7.06112 17.9389 6.3 17 6.3H7C6.06112 6.3 5.3 7.06112 5.3 8L5.3 18.7129ZM8.49219 9.64356C8.49219 9.28458 8.7832 8.99356 9.14219 8.99356H14.8579C15.2169 8.99356 15.5079 9.28458 15.5079 9.64356C15.5079 10.0025 15.2169 10.2936 14.8579 10.2936L9.14219 10.2936C8.7832 10.2936 8.49219 10.0025 8.49219 9.64356ZM8.49219 12.6361C8.49219 12.2771 8.7832 11.9861 9.14219 11.9861L12.7912 11.9861C13.1502 11.9861 13.4412 12.2771 13.4412 12.6361C13.4412 12.9951 13.1502 13.2861 12.7912 13.2861H9.14219C8.7832 13.2861 8.49219 12.9951 8.49219 12.6361Z" fill="#505050"/>
</svg>
