<svg width="24" height="24" viewBox="0 0 24 24" fill="none" xmlns="http://www.w3.org/2000/svg">
<path fill-rule="evenodd" clip-rule="evenodd" d="M18.6186 3.34691L20.6531 5.38145L18.6186 7.41599L16.5841 5.38145L18.6186 3.34691ZM17.7795 2.34759C18.2429 1.88414 18.9943 1.88414 19.4578 2.34759L21.6525 4.5423C22.1159 5.00575 22.1159 5.75715 21.6525 6.2206L19.4578 8.41531C18.9943 8.87877 18.2429 8.87877 17.7795 8.41531L15.5847 6.2206C15.1213 5.75715 15.1213 5.00575 15.5847 4.5423L17.7795 2.34759ZM7.10601 3.68144L3.70601 3.68144L3.70601 7.08144H7.10601V3.68144ZM18.6186 16.9266C17.6797 16.9266 16.9186 17.6877 16.9186 18.6266C16.9186 19.5655 17.6797 20.3266 18.6186 20.3266C19.5575 20.3266 20.3186 19.5655 20.3186 18.6266C20.3186 17.6877 19.5575 16.9266 18.6186 16.9266ZM2.40601 3.68144C2.40601 2.96347 2.98804 2.38144 3.70601 2.38144H7.10601C7.82398 2.38144 8.40601 2.96347 8.40601 3.68144V7.08144C8.40601 7.79941 7.82398 8.38144 7.10601 8.38144H3.70601C2.98804 8.38144 2.40601 7.79941 2.40601 7.08144V3.68144ZM18.6186 15.6266C16.9617 15.6266 15.6186 16.9698 15.6186 18.6266C15.6186 20.2835 16.9617 21.6266 18.6186 21.6266C20.2754 21.6266 21.6186 20.2835 21.6186 18.6266C21.6186 16.9698 20.2754 15.6266 18.6186 15.6266Z" fill="#505050"/>
<path d="M18.6185 10.0586C18.9775 10.0586 19.2685 10.3496 19.2685 10.7086V13.6722C19.2685 14.0311 18.9775 14.3222 18.6185 14.3222C18.2595 14.3222 17.9685 14.0311 17.9685 13.6722V10.7086C17.9685 10.3496 18.2595 10.0586 18.6185 10.0586Z" fill="#505050"/>
<path d="M10.3571 4.73141C9.99808 4.73141 9.70707 5.02243 9.70707 5.38141C9.70707 5.7404 9.99808 6.03141 10.3571 6.03141H13.2875C13.6465 6.03141 13.9375 5.7404 13.9375 5.38141C13.9375 5.02243 13.6465 4.73141 13.2875 4.73141H10.3571Z" fill="#505050"/>
<path d="M11.74 17.9585L10.227 16.4965C9.97315 16.2426 9.97315 15.8311 10.227 15.5772C10.4808 15.3234 10.8924 15.3234 11.1462 15.5772L14.1222 18.1489C14.376 18.4027 14.376 18.8142 14.1222 19.0681L11.154 21.6319C10.9002 21.8857 10.4886 21.8857 10.2348 21.6319C9.98096 21.3781 9.98096 20.9665 10.2348 20.7127L11.739 19.2594H8.41162C6.39578 19.2594 4.76162 17.6252 4.76162 15.6094V10.332C4.76162 9.97305 5.05264 9.68203 5.41162 9.68203C5.77061 9.68203 6.06162 9.97305 6.06162 10.332V15.6094C6.06162 16.9072 7.11375 17.9594 8.41162 17.9594L11.74 17.9585Z" fill="#505050"/>
</svg>
