<svg width="24" height="24" viewBox="0 0 24 24" fill="none" xmlns="http://www.w3.org/2000/svg">
<path fill-rule="evenodd" clip-rule="evenodd" d="M8.88002 12.65C8.13104 12.65 7.53002 13.251 7.53002 14V15.32C7.53002 16.069 8.13104 16.67 8.88002 16.67H11.2C11.949 16.67 12.55 16.069 12.55 15.32V14C12.55 13.251 11.949 12.65 11.2 12.65H8.88002ZM8.83002 14C8.83002 13.9812 8.83633 13.9705 8.84339 13.9634C8.85046 13.9563 8.86122 13.95 8.88002 13.95H11.2C11.2188 13.95 11.2296 13.9563 11.2367 13.9634C11.2437 13.9705 11.25 13.9812 11.25 14V15.32C11.25 15.3388 11.2437 15.3496 11.2367 15.3566C11.2296 15.3637 11.2188 15.37 11.2 15.37H8.88002C8.86122 15.37 8.85046 15.3637 8.84339 15.3566C8.83633 15.3496 8.83002 15.3388 8.83002 15.32V14Z" fill="#505050"/>
<path fill-rule="evenodd" clip-rule="evenodd" d="M8.78998 2.60001C8.78998 2.24103 8.49896 1.95001 8.13998 1.95001C7.78099 1.95001 7.48998 2.24103 7.48998 2.60001V3.99002H7C5.34 3.99002 4 5.33002 4 6.99002V17.12C4 18.78 5.34 20.12 7 20.12H17C18.66 20.12 20 18.78 20 17.12V6.99002C20 5.33002 18.65 3.99002 17 3.99002H16.5V2.60001C16.5 2.24103 16.209 1.95001 15.85 1.95001C15.491 1.95001 15.2 2.24103 15.2 2.60001V3.99002H12.65V2.60001C12.65 2.24103 12.359 1.95001 12 1.95001C11.641 1.95001 11.35 2.24103 11.35 2.60001V3.99002H8.78998V2.60001ZM7.48998 5.29002V6.86001C7.48998 7.219 7.78099 7.51001 8.13998 7.51001C8.49896 7.51001 8.78998 7.219 8.78998 6.86001V5.29002H11.35V6.86001C11.35 7.219 11.641 7.51001 12 7.51001C12.359 7.51001 12.65 7.219 12.65 6.86001V5.29002H15.2V6.86001C15.2 7.219 15.491 7.51001 15.85 7.51001C16.209 7.51001 16.5 7.219 16.5 6.86001V5.29002H17C17.94 5.29002 18.7 6.05002 18.7 6.99002V9.35003H5.3V6.99002C5.3 6.05002 6.06 5.29002 7 5.29002H7.48998ZM5.3 10.65H18.7V17.12C18.7 18.06 17.94 18.82 17 18.82H7C6.06 18.82 5.3 18.06 5.3 17.12V10.65Z" fill="#505050"/>
</svg>
