<svg width="20" height="20" viewBox="0 0 20 20" fill="none" xmlns="http://www.w3.org/2000/svg">
<path fill-rule="evenodd" clip-rule="evenodd" d="M8.18979 2.5C5.96892 2.5 4.24282 4.43335 4.49358 6.64002L4.71195 8.56165C4.91295 10.3305 6.40959 11.6667 8.18979 11.6667C9.97 11.6667 11.4666 10.3305 11.6676 8.56165L11.886 6.64002C12.1368 4.43335 10.4107 2.5 8.18979 2.5ZM10.5912 8.43933L10.8096 6.5177C10.9873 4.95366 9.7639 3.58333 8.18979 3.58333C6.61568 3.58333 5.39226 4.95366 5.56999 6.5177L5.78835 8.43933C5.92715 9.66069 6.96057 10.5833 8.18979 10.5833C9.41902 10.5833 10.4524 9.6607 10.5912 8.43933Z" fill="#505050"/>
<path fill-rule="evenodd" clip-rule="evenodd" d="M6.64509 12.5C4.3016 12.5 2.27253 14.1277 1.76416 16.4153L1.68088 16.7901C1.59992 17.1544 1.87713 17.5 2.25032 17.5H14.1293C14.5025 17.5 14.7797 17.1544 14.6987 16.7901L14.6154 16.4153C14.107 14.1277 12.078 12.5 9.73449 12.5H6.64509ZM13.4984 16.4167C13.0192 14.7485 11.4894 13.5833 9.73449 13.5833H6.64509C4.8902 13.5833 3.3604 14.7485 2.88116 16.4167H13.4984Z" fill="#505050"/>
<path d="M11.8104 11.6667C11.4936 11.6667 11.3806 11.2819 11.579 11.0349C11.6181 10.9862 11.6562 10.9368 11.6933 10.8865C11.8301 10.7013 12.0395 10.5836 12.2657 10.5404C13.2865 10.3453 14.0906 9.50632 14.2118 8.43933L14.4302 6.5177C14.5809 5.19109 13.7236 4.00386 12.4993 3.67396C12.2056 3.59482 11.932 3.43896 11.7408 3.20237C11.6994 3.1512 11.6571 3.10088 11.6137 3.05145C11.4294 2.8416 11.5311 2.5 11.8104 2.5C14.0312 2.5 15.7573 4.43335 15.5066 6.64002L15.2882 8.56165C15.0872 10.3305 13.5906 11.6667 11.8104 11.6667Z" fill="#505050"/>
<path d="M16.0953 17.5C15.8098 17.5 15.6062 17.207 15.6031 16.9215C15.6002 16.6599 15.7874 16.4167 16.049 16.4167H17.119C16.7548 15.149 15.784 14.1718 14.5688 13.7757C14.3949 13.719 14.2482 13.637 14.1356 13.4929C13.8327 13.105 14.0968 12.5305 14.5741 12.6503C16.375 13.1027 17.8185 14.5364 18.236 16.4153L18.3193 16.7901C18.4002 17.1544 18.123 17.5 17.7498 17.5H16.0953Z" fill="#505050"/>
</svg>
