<svg width="20" height="20" viewBox="0 0 20 20" fill="none" xmlns="http://www.w3.org/2000/svg">
<path fill-rule="evenodd" clip-rule="evenodd" d="M6.5417 8.41664C6.5417 6.50665 8.09005 4.9583 10 4.9583C11.91 4.9583 13.4584 6.50665 13.4584 8.41664C13.4584 10.3266 11.91 11.875 10 11.875C8.09005 11.875 6.5417 10.3266 6.5417 8.41664ZM10 6.04164C8.68835 6.04164 7.62503 7.10496 7.62503 8.41664C7.62503 9.72831 8.68835 10.7916 10 10.7916C11.3117 10.7916 12.375 9.72831 12.375 8.41664C12.375 7.10496 11.3117 6.04164 10 6.04164Z" fill="#505050"/>
<path fill-rule="evenodd" clip-rule="evenodd" d="M9.68634 2.60826C12.4135 2.44356 15.3102 4.03315 15.7406 7.55589C15.7709 7.80397 15.7892 8.03466 15.7921 8.24238C15.8078 9.36434 15.4512 10.4995 14.9411 11.5486C14.4292 12.6015 13.7468 13.5998 13.0724 14.4576C12.3969 15.3169 11.721 16.0456 11.2144 16.5594C10.9368 16.8409 10.6555 17.1194 10.3597 17.3819C10.1546 17.5635 9.84571 17.563 9.6407 17.3814C9.64086 17.3815 9.67787 17.3403 9.6407 17.3814C9.34557 17.1186 9.06394 16.8407 8.78654 16.5594C8.27999 16.0456 7.60406 15.3169 6.92851 14.4576C6.25415 13.5998 5.57181 12.6015 5.05988 11.5486C4.54978 10.4995 4.19316 9.36434 4.20887 8.24238C4.25851 4.69784 6.9605 2.77287 9.68634 2.60826ZM10.0005 16.2359C9.8776 16.1178 9.72773 15.9709 9.55793 15.7987C9.07129 15.3052 8.42416 14.6072 7.78016 13.788C7.13498 12.9674 6.50131 12.0357 6.03415 11.0749C5.56517 10.1104 5.27963 9.14838 5.2921 8.25755C5.33217 5.39631 7.46793 3.82753 9.75164 3.68962C12.0341 3.55178 14.3187 4.8509 14.6653 7.68727C14.6924 7.90942 14.7067 8.09961 14.7089 8.25755C14.7213 9.14838 14.4358 10.1104 13.9668 11.0749C13.4997 12.0357 12.866 12.9674 12.2208 13.788C11.5768 14.6072 10.9297 15.3052 10.443 15.7987C10.2732 15.9709 10.1233 16.1178 10.0005 16.2359Z" fill="#505050"/>
</svg>
