<svg width="20" height="20" viewBox="0 0 20 20" fill="none" xmlns="http://www.w3.org/2000/svg">
<path fill-rule="evenodd" clip-rule="evenodd" d="M14.7083 2.79175C16.089 2.79175 17.2083 3.91104 17.2083 5.29175V13.6251C17.2083 15.0058 16.089 16.1251 14.7083 16.1251H8.04158C6.66087 16.1251 5.54158 15.0058 5.54158 13.6251V5.29175C5.54158 3.91104 6.66087 2.79175 8.04158 2.79175H14.7083ZM8.04158 3.87508H14.7083C15.4907 3.87508 16.1249 4.50934 16.1249 5.29175V13.6251C16.1249 14.4075 15.4907 15.0417 14.7083 15.0417H8.04158C7.25918 15.0417 6.62492 14.4075 6.62492 13.6251V5.29175C6.62492 4.50934 7.25918 3.87508 8.04158 3.87508ZM3.33325 7.79175C3.33325 7.49259 3.57576 7.25008 3.87492 7.25008C4.17407 7.25008 4.41658 7.49259 4.41658 7.79175V15.6251C4.41658 16.5225 5.14412 17.2501 6.04158 17.2501H13.0416C13.3407 17.2501 13.5833 17.4926 13.5833 17.7917C13.5833 18.0909 13.3407 18.3334 13.0416 18.3334H6.04158C4.54581 18.3334 3.33325 17.1209 3.33325 15.6251V7.79175ZM11.687 6.58132C11.687 6.88047 11.4445 7.12298 11.1454 7.12298L8.89189 7.12298C8.59273 7.12298 8.35022 6.88046 8.35022 6.58131C8.35022 6.28215 8.59273 6.03964 8.89189 6.03964L11.1454 6.03965C11.4445 6.03965 11.687 6.28216 11.687 6.58132ZM13.8568 10.0479C14.1559 10.0479 14.3984 9.80537 14.3984 9.50622C14.3984 9.20706 14.1559 8.96455 13.8568 8.96455L8.89189 8.96455C8.59273 8.96455 8.35022 9.20706 8.35022 9.50622C8.35022 9.80537 8.59273 10.0479 8.89189 10.0479L13.8568 10.0479ZM14.3984 12.4311C14.3984 12.7303 14.1559 12.9728 13.8568 12.9728L8.89189 12.9728C8.59273 12.9728 8.35022 12.7303 8.35022 12.4311C8.35022 12.132 8.59273 11.8895 8.89189 11.8895L13.8568 11.8895C14.1559 11.8895 14.3984 12.132 14.3984 12.4311Z" fill="#505050"/>
</svg>
