<svg width="24" height="24" viewBox="0 0 24 24" fill="none" xmlns="http://www.w3.org/2000/svg">
<path d="M13.1792 8.24908C13.048 8.12583 12.972 7.95842 12.9731 7.76737C12.9831 7.40626 13.2784 7.12113 13.6322 7.12423L15.7846 7.10802L15.795 7.09682C14.7462 6.28392 13.4296 5.80006 12 5.80006C8.57583 5.80006 5.8 8.57589 5.8 12.0001C5.8 12.1843 5.80803 12.3666 5.82377 12.5467C5.85289 12.8801 5.65987 13.2021 5.33927 13.2983C4.96965 13.4092 4.58203 13.1786 4.54161 12.7948C4.5141 12.5337 4.5 12.2685 4.5 12.0001C4.5 7.85792 7.85786 4.50006 12 4.50006C13.7642 4.50006 15.3862 5.10922 16.667 6.12868L16.4805 4.09227C16.4481 3.73248 16.7215 3.42681 17.0813 3.39435C17.4342 3.36918 17.7467 3.63532 17.7792 3.99511L18.0669 7.64683C18.1012 8.06315 17.7725 8.413 17.3549 8.40482L13.6163 8.42644C13.4394 8.42489 13.2958 8.35863 13.1792 8.24908Z" fill="#505050"/>
<path d="M10.2902 15.2936C10.4214 15.4169 10.4974 15.5843 10.4963 15.7753C10.4864 16.1365 10.1911 16.4216 9.83724 16.4185L7.68488 16.4347L7.67643 16.4438C8.7933 17.5306 10.3185 18.2001 12 18.2001C15.4242 18.2001 18.2 15.4242 18.2 12.0001C18.2 11.618 18.1654 11.244 18.0993 10.8811C18.0377 10.543 18.2109 10.1961 18.5338 10.0787C18.8872 9.95017 19.2786 10.1451 19.3527 10.5137C19.4493 10.9942 19.5 11.4912 19.5 12.0001C19.5 16.1422 16.1421 19.5001 12 19.5001C9.98183 19.5001 8.14984 18.7029 6.8017 17.4063L6.98893 19.4504C7.02139 19.8102 6.74796 20.1159 6.38817 20.1484C6.03524 20.1735 5.72272 19.9074 5.69026 19.5476L5.40252 15.8959C5.3683 15.4796 5.69695 15.1297 6.1146 15.1379L9.85316 15.1163C10.0301 15.1178 10.1736 15.1841 10.2902 15.2936Z" fill="#505050"/>
</svg>
