<svg width="20" height="20" viewBox="0 0 20 20" fill="none" xmlns="http://www.w3.org/2000/svg">
<path fill-rule="evenodd" clip-rule="evenodd" d="M13.3335 10C13.3335 11.841 11.8411 13.3334 10.0001 13.3334C8.15917 13.3334 6.66678 11.841 6.66678 10C6.66678 8.15909 8.15917 6.66671 10.0001 6.66671C11.8411 6.66671 13.3335 8.15909 13.3335 10ZM12.2501 10C12.2501 11.2427 11.2428 12.25 10.0001 12.25C8.75748 12.25 7.75012 11.2427 7.75012 10C7.75012 8.7574 8.75748 7.75004 10.0001 7.75004C11.2428 7.75004 12.2501 8.7574 12.2501 10Z" fill="#505050"/>
<path fill-rule="evenodd" clip-rule="evenodd" d="M9.15266 2.50415C8.41457 2.50415 7.78951 3.04844 7.68803 3.77953C7.56219 4.6862 6.61659 5.23214 5.76847 4.88779C5.08459 4.61012 4.30069 4.87929 3.93165 5.5185L3.13437 6.89944C2.7698 7.53089 2.91995 8.33384 3.48806 8.79088C4.22273 9.38192 4.21064 10.5217 3.45639 11.109C2.87399 11.5624 2.71514 12.3758 3.08419 13.015L3.88147 14.396C4.24604 15.0274 5.01649 15.2989 5.69636 15.0354C6.57555 14.6947 7.55662 15.2751 7.68803 16.2219C7.78951 16.9529 8.41457 17.4972 9.15266 17.4972H10.7472C11.4764 17.4972 12.0967 16.9657 12.2084 16.2452C12.3604 15.2654 13.3793 14.6771 14.3039 15.0354C14.9837 15.2989 15.7542 15.0274 16.1188 14.396L16.916 13.015C17.2851 12.3758 17.1262 11.5624 16.5438 11.109C15.7896 10.5217 15.7775 9.38192 16.5122 8.79088C17.0803 8.33384 17.2304 7.53089 16.8659 6.89944L16.0686 5.5185C15.6995 4.87929 14.9156 4.61012 14.2318 4.88779C13.3461 5.24738 12.3529 4.68794 12.2084 3.75618C12.0967 3.03566 11.4764 2.50415 10.7472 2.50415H9.15266ZM8.76108 3.92847C8.78821 3.73301 8.95533 3.58748 9.15266 3.58748L10.7472 3.58748C10.9422 3.58748 11.108 3.72959 11.1379 3.92223C11.3915 5.55743 13.1181 6.50916 14.6393 5.89154C14.8221 5.81731 15.0317 5.88927 15.1304 6.06017L15.9277 7.4411C16.0251 7.60993 15.985 7.8246 15.8331 7.9468C14.5438 8.98405 14.5829 10.9552 15.8783 11.9638C16.034 12.085 16.0765 12.3025 15.9778 12.4734L15.1806 13.8543C15.0831 14.0231 14.8771 14.0957 14.6953 14.0253C13.1257 13.417 11.3959 14.4157 11.1379 16.0792C11.108 16.2718 10.9422 16.4139 10.7472 16.4139H9.15266C8.95533 16.4139 8.78821 16.2684 8.76108 16.0729C8.53537 14.4467 6.84784 13.4273 5.30489 14.0253C5.12312 14.0957 4.91714 14.0231 4.81967 13.8543L4.02239 12.4734C3.92372 12.3025 3.96619 12.085 4.1219 11.9638C5.41736 10.9552 5.45644 8.98405 4.16712 7.9468C4.01523 7.8246 3.97509 7.60993 4.07256 7.4411L4.86984 6.06017C4.96851 5.88927 5.17809 5.81731 5.36093 5.89154C6.86322 6.50149 8.53817 5.53446 8.76108 3.92847Z" fill="#505050"/>
</svg>
