<svg width="20" height="20" viewBox="0 0 20 20" fill="none" xmlns="http://www.w3.org/2000/svg">
<path d="M10.5417 6.79453C10.5417 6.49538 10.2992 6.25286 10 6.25286C9.70085 6.25286 9.45833 6.49538 9.45833 6.79453V10.5445C9.45833 10.8437 9.70085 11.0862 10 11.0862H13.3333C13.6325 11.0862 13.875 10.8437 13.875 10.5445C13.875 10.2454 13.6325 10.0029 13.3333 10.0029H10.5417V6.79453Z" fill="#505050"/>
<path fill-rule="evenodd" clip-rule="evenodd" d="M2.5 10C2.5 5.85786 5.85786 2.5 10 2.5C14.1421 2.5 17.5 5.85786 17.5 10C17.5 14.1421 14.1421 17.5 10 17.5C5.85786 17.5 2.5 14.1421 2.5 10ZM10 3.58333C6.45617 3.58333 3.58333 6.45617 3.58333 10C3.58333 13.5438 6.45617 16.4167 10 16.4167C13.5438 16.4167 16.4167 13.5438 16.4167 10C16.4167 6.45617 13.5438 3.58333 10 3.58333Z" fill="#505050"/>
</svg>
