<svg width="24" height="24" viewBox="0 0 24 24" fill="none" xmlns="http://www.w3.org/2000/svg">
<path fill-rule="evenodd" clip-rule="evenodd" d="M3.00438 8.64713L3.00784 5.55458C3.1409 4.13281 5.55069 3 8.50392 3C8.7274 3 8.94777 3.00649 9.16427 3.01909C11.7326 3.16778 13.7561 4.1677 13.9795 5.41506C13.9888 5.46123 13.9956 5.50775 14 5.55458L14 7.92896C14 8.27842 13.706 8.55582 13.3565 8.5604C13.0003 8.56507 12.7 8.28487 12.7 7.92857V7.35282C11.6911 7.92606 10.1839 8.29 8.5 8.29C6.81957 8.29 5.31515 7.92757 4.3063 7.35639L4.30519 8.64713H4.30695C4.32232 8.6915 4.42964 8.98563 5.17866 9.34585C5.81675 9.65273 6.9668 9.92628 8.11016 10.0174C8.24612 10.0282 8.38164 10.0361 8.51619 10.0413C8.80146 10.0523 8.91425 10.5902 8.74066 10.8169C8.49853 11.133 8.18181 11.335 7.7855 11.2961C6.43867 11.164 5.18795 10.7933 4.30378 10.2856L4.30261 11.6471H4.30694C4.32231 11.6915 4.42964 11.9856 5.17865 12.3459C5.74625 12.6188 6.78971 12.8353 7.7863 12.934C8.1323 12.9683 8.40538 13.2534 8.40538 13.6011C8.40538 13.972 8.09566 14.2699 7.7266 14.2324C6.4039 14.0978 5.17406 13.7442 4.30123 13.2563L4.30005 14.6228C4.30191 14.6301 4.30561 14.6413 4.31301 14.6571C4.32876 14.6907 4.36242 14.747 4.43061 14.8215C4.57204 14.9762 4.82374 15.1673 5.21539 15.3534C5.78025 15.6218 6.81773 15.8336 7.7992 15.9309C8.14515 15.9652 8.41815 16.2503 8.41815 16.5979C8.41815 16.969 8.10838 17.2669 7.73929 17.2291C5.24775 16.974 3.06653 15.9347 3 14.681L3.00515 8.68851C3.00464 8.67473 3.00438 8.66094 3.00438 8.64713ZM11.76 4.92228C11.0925 4.61092 10.1619 4.37849 9.08112 4.31644C8.89249 4.30568 8.69924 4.30004 8.50197 4.3C7.17666 4.30025 6.03115 4.55692 5.24782 4.92228C4.85619 5.10494 4.59884 5.29423 4.45003 5.4509C4.37799 5.52674 4.34022 5.58557 4.3214 5.62283C4.3149 5.63569 4.3106 5.64604 4.30776 5.65405L4.30776 5.65898C4.33747 5.73351 4.48101 6.01031 5.17433 6.34373C5.95819 6.7207 7.13243 6.99 8.5 6.99C9.86757 6.99 11.0418 6.7207 11.8257 6.34373C12.569 5.98627 12.6804 5.69389 12.6971 5.64607C12.6944 5.6395 12.691 5.63177 12.6864 5.62283C12.6676 5.58557 12.6299 5.52674 12.5578 5.4509C12.409 5.29423 12.1517 5.10494 11.76 4.92228Z" fill="#505050"/>
<path fill-rule="evenodd" clip-rule="evenodd" d="M9.94908 18.3163L9.94908 15.4271C9.94678 15.3957 9.94562 15.3641 9.94562 15.3324H9.94908L9.94908 12.2843C9.95242 12.248 9.95719 12.2119 9.96335 12.176C10.124 10.7845 12.5211 9.67993 15.4548 9.67993C18.4923 9.67993 20.9548 10.8641 20.9548 12.3249C20.9548 12.3871 20.9503 12.4488 20.9415 12.51L20.9491 18.3163C20.8723 19.7894 18.4393 20.9718 15.4491 20.9718C12.4589 20.9718 10.0259 19.7894 9.94908 18.3163ZM11.2648 12.3443C11.3222 12.2233 11.5253 11.9343 12.1972 11.6152C12.9788 11.244 14.1221 10.9833 15.4452 10.9833C16.7682 10.9833 17.9115 11.244 18.6931 11.6152C19.4086 11.955 19.5925 12.2607 19.635 12.3657C19.5848 12.4669 19.4075 12.7221 18.7805 13.0237C17.9966 13.4006 16.8224 13.6699 15.4548 13.6699C14.0872 13.6699 12.913 13.4006 12.1291 13.0237C11.4516 12.6978 11.2991 12.4261 11.2648 12.3443ZM11.2491 14.0295C12.258 14.6046 13.7677 14.9699 15.4548 14.9699C17.1325 14.9699 18.6347 14.6087 19.6435 14.0391L19.6452 15.3324H19.6426C19.6272 15.3767 19.5199 15.6709 18.7709 16.0311C17.9871 16.4081 16.8129 16.6774 15.4454 16.6774C14.0779 16.6774 12.9037 16.4081 12.1199 16.0311C11.384 15.6772 11.2675 15.3871 11.2491 15.3349V14.0295ZM15.4454 17.9774C13.7635 17.9774 12.2579 17.6143 11.2491 17.0422V18.2571C11.2635 18.3138 11.3824 18.6438 12.1727 19.0262C12.9541 19.4042 14.1088 19.6718 15.4491 19.6718C16.7893 19.6718 17.944 19.4042 18.7255 19.0262C19.5144 18.6445 19.6343 18.315 19.649 18.2574L19.6474 17.0389C18.6386 17.6129 17.1305 17.9774 15.4454 17.9774Z" fill="#505050"/>
</svg>
