<svg width="20" height="20" viewBox="0 0 20 20" fill="none" xmlns="http://www.w3.org/2000/svg">
<path fill-rule="evenodd" clip-rule="evenodd" d="M7.74386 6.79164C7.74386 7.94223 8.6766 8.87497 9.82719 8.87497C10.9778 8.87497 11.9105 7.94223 11.9105 6.79164C11.9105 5.64104 10.9778 4.7083 9.82719 4.7083C8.6766 4.7083 7.74386 5.64104 7.74386 6.79164ZM8.82719 6.79164C8.82719 7.34392 9.2749 7.79164 9.82719 7.79164C10.3795 7.79164 10.8272 7.34392 10.8272 6.79164C10.8272 6.23935 10.3795 5.79164 9.82719 5.79164C9.2749 5.79164 8.82719 6.23935 8.82719 6.79164Z" fill="#505050"/>
<path fill-rule="evenodd" clip-rule="evenodd" d="M17.2083 5C17.2083 3.61929 16.089 2.5 14.7083 2.5H8.04158C6.66087 2.5 5.54158 3.61929 5.54158 5V13.3333C5.54158 14.714 6.66087 15.8333 8.04158 15.8333H8.04261L8.04158 15.835H14.7083C16.089 15.835 17.2083 14.7157 17.2083 13.335V5ZM14.7083 14.75C15.4907 14.75 16.1249 14.1157 16.1249 13.3333V12.1626L14.6465 10.0242C14.2009 9.37965 13.2396 9.40675 12.831 10.0753L9.97425 14.75H14.7083ZM15.5376 9.4081L16.1249 10.2576V5C16.1249 4.2176 15.4907 3.58333 14.7083 3.58333H8.04158C7.25918 3.58333 6.62492 4.2176 6.62492 5V13.3333C6.62492 14.1157 7.25918 14.75 8.04158 14.75H8.70465L11.9066 9.51043C12.7238 8.17325 14.6464 8.11907 15.5376 9.4081Z" fill="#505050"/>
<path d="M3.87492 6.95833C3.57576 6.95833 3.33325 7.20085 3.33325 7.5V15.3333C3.33325 16.8291 4.54581 18.0417 6.04159 18.0417H13.0416C13.3407 18.0417 13.5833 17.7992 13.5833 17.5C13.5833 17.2008 13.3407 16.9583 13.0416 16.9583H6.04159C5.14412 16.9583 4.41658 16.2308 4.41658 15.3333V7.5C4.41658 7.20085 4.17407 6.95833 3.87492 6.95833Z" fill="#505050"/>
</svg>
